PathFileType	4	(X/Y/Z)	D:\TRACE\v60_Jaco2_6-2-23\BothDRS_Motion3_4-v60.trc
DataRate	CameraRate	NumFrames	NumMarkers	Units	OrigDataRate	OrigDataStartFrame	OrigNumFrames
100.00	100.00	      17	9	mm	100.00	4376	      7000
Frame#	Time	front left toe			Front right toe			aft left toe			aft right toe			Arm			FL body			FR body			AL Body			AR Body			
		X1	Y1	Z1	X2	Y2	Z2	X3	Y3	Z3	X4	Y4	Z4	X5	Y5	Z5	X6	Y6	Z6	X7	Y7	Z7	X8	Y8	Z8	X9	Y9	Z9	

4376	43.750	-139.64902	140.21619	-222.73705	238.87364	11.97395	-230.13895	-129.62041	17.16612	393.67026	244.41676	143.82417	390.98245	111.60488	1124.93604	-548.80878	-23.28211	503.17300	-392.66708	134.77934	499.80664	-393.74460	-5.31759	588.66412	548.03912	145.69574	575.84094	546.68164	
4377	43.760	-138.72354	135.30713	-222.98151	238.29384	12.38805	-229.98039	-129.94069	16.70150	393.85980	244.70665	138.93282	390.91422	112.92065	1125.97974	-547.40112	-22.83515	503.83493	-392.58289	135.10487	500.38647	-393.62070	-5.83192	588.05121	548.16211	145.43478	575.20251	546.89526	
4378	43.770	-136.78615	129.33997	-223.43394	237.95779	12.61178	-229.51129	-130.36868	16.22816	394.08929	245.11812	133.39272	390.81339	114.78376	1127.12878	-546.08594	-22.52701	504.42517	-392.51392	135.55264	500.83768	-393.65491	-5.88238	587.27625	548.40796	144.93974	574.22125	547.27869	
4379	43.780	-135.24973	123.25386	-223.95271	238.06995	12.94109	-229.03207	-131.27080	16.23990	394.38239	245.67084	126.93846	390.76086	116.53024	1128.13367	-544.65009	-22.11943	505.05362	-392.51764	136.98961	501.16187	-393.65826	-6.10577	586.34753	548.46881	144.53642	573.15985	547.38599	
4380	43.790	-133.46515	116.12602	-224.98827	238.07304	13.19532	-228.78462	-131.67145	15.68209	394.51514	247.22021	119.80577	390.62073	118.02741	1129.26453	-543.09991	-21.63378	505.59863	-392.28995	137.10420	501.70728	-393.68045	-6.38435	585.41742	548.68256	144.35768	572.17889	547.42511	
4381	43.800	-132.40150	107.73154	-225.90372	237.67441	13.65925	-228.66742	-131.74565	14.78729	394.45483	248.43323	111.94286	390.14810	119.19016	1130.22400	-541.81262	-21.31351	506.38034	-392.42282	137.55974	502.38580	-393.47198	-7.12590	584.54370	548.87848	144.06236	571.14752	547.94537	
4382	43.810	-130.98598	98.51592	-227.01508	237.13377	13.81556	-228.69197	-132.54544	14.49276	394.54242	250.27541	103.29951	390.13721	119.95067	1131.17383	-540.40131	-20.70614	507.00906	-392.42969	138.14609	502.94193	-393.29459	-7.28478	583.72253	549.09222	144.19139	570.26355	548.33270	
4383	43.820	-129.76622	89.63953	-227.97125	236.84048	14.00692	-228.71089	-132.20291	13.46951	394.66553	251.44119	94.58250	389.56973	120.63069	1132.09253	-539.34009	-20.51426	507.93277	-392.63040	138.57845	503.33115	-393.14029	-7.74253	582.55267	549.25677	143.42889	569.09473	548.61877	
4384	43.830	-128.29117	80.60915	-228.58382	236.82985	14.57715	-228.08994	-132.47510	13.06308	394.73627	252.96536	85.94403	389.48538	121.34476	1132.74524	-538.28662	-19.93421	508.40808	-392.31427	138.99707	504.08560	-393.01505	-7.71503	581.79614	549.45227	143.21681	568.10541	548.60077	
4385	43.840	-126.08550	70.66326	-228.47710	236.57684	14.80638	-227.74298	-133.25529	12.95327	394.99762	253.46744	76.89616	389.43613	122.22513	1133.43372	-537.13751	-19.33333	508.75638	-392.31454	139.55824	504.55856	-392.83258	-8.45900	580.81244	549.60889	142.68979	567.07916	549.21375	
4386	43.850	-124.44691	61.17165	-228.52280	236.55563	15.45419	-227.26164	-133.05907	11.84888	395.11017	254.59694	68.46833	389.98618	123.01453	1134.05481	-536.20453	-18.66350	509.33792	-392.08102	139.97546	504.96274	-392.58496	-8.25605	580.01135	549.81378	142.76414	566.40869	549.39471	
4387	43.860	-122.62288	51.10574	-227.61327	236.23279	15.57912	-227.15703	-133.62422	11.70073	395.30615	254.74600	59.86229	390.58319	123.81269	1134.61621	-535.04230	-18.38012	509.81879	-392.22211	140.68050	505.32898	-392.29669	-8.60896	579.34174	550.02966	142.67230	565.42999	549.58289	
4388	43.870	-122.22173	42.11035	-226.46304	236.09683	15.82436	-226.95004	-134.40587	11.73090	395.36444	254.64946	51.73285	391.33945	124.57733	1135.29016	-533.95642	-17.77423	509.98285	-392.20087	141.00900	505.50891	-392.28348	-8.96616	578.63165	550.01190	142.25038	564.85803	549.86450	
4389	43.880	-121.48994	34.00460	-225.19780	235.73326	15.81161	-227.02838	-134.26511	10.95540	395.52835	255.35713	44.38654	392.62097	125.34883	1135.75354	-533.23004	-17.18957	510.08862	-392.13077	141.86778	505.62164	-391.90659	-8.83234	577.98938	550.22308	142.62949	564.16101	550.21753	
4390	43.890	-121.18570	27.12648	-224.00958	235.78244	15.90556	-226.78258	-134.58134	10.39283	395.66315	255.83806	37.43517	393.77747	125.90382	1136.00720	-532.31567	-16.64682	510.02026	-391.92139	142.30200	505.56897	-391.69791	-9.20200	577.31024	550.35522	142.02512	563.56000	550.55798	
4391	43.900	-120.96751	21.23577	-222.84138	235.87308	16.28152	-226.32327	-134.60036	9.98559	395.80801	255.98001	31.31779	395.04385	126.34167	1136.02368	-531.82410	-16.17313	510.05069	-391.84680	142.64391	505.64844	-391.51962	-9.27130	576.73450	550.58966	141.74432	563.04785	550.70532	
4392	43.910	-121.56822	20.54463	-224.31277	236.98590	17.05962	-225.49065	-135.22934	10.13068	395.87473	255.84059	24.72963	396.11194	126.68744	1135.97461	-531.44458	-15.72347	510.04919	-391.64856	143.19595	505.66818	-391.26434	-9.25110	576.27478	550.86499	142.30814	562.29236	551.12854	
